<!--?xml version="1.0" encoding="utf-8"?-->
<!-- Generator: Adobe Illustrator 18.0.0, SVG Export Plug-In . SVG Version: 6.00 Build 0)  -->

<svg version="1.1" id="_x32_" xmlns="http://www.w3.org/2000/svg" xmlns:xlink="http://www.w3.org/1999/xlink" viewBox="0 0 512 512" fill="#272343">

<g>
	<polygon class="st0" points="55.924,451.681 55.924,20.681 55.924,4.393 0,4.393 0,20.681 0,451.681 0,491.314 0,507.607
		16.289,507.607 55.924,507.607 486.922,507.607 503.211,507.607 503.211,451.681 486.922,451.681 	"></polygon>
	<path class="st0" d="M133.422,338.877l81.482-133.914c2.705,0.426,5.453,0.711,8.277,0.711c9.066,0,17.592-2.289,25.053-6.305
		l84.476,71.426c-1.551,4.98-2.386,10.269-2.386,15.762c0,29.215,23.682,52.894,52.896,52.894c29.215,0,52.896-23.68,52.896-52.894
		c0-12.387-4.289-23.754-11.42-32.766L512,105.838l-33.303-20.887l-86.953,149.457c-2.783-0.453-5.615-0.75-8.523-0.75
		c-9.32,0-18.064,2.43-25.668,6.66l-84.104-71.121c1.688-5.172,2.631-10.684,2.631-16.422c0-29.215-23.686-52.898-52.898-52.898
		c-29.215,0-52.896,23.684-52.896,52.898c0,12.054,4.078,23.133,10.867,32.027L99.838,318.435L133.422,338.877z"></path>
</g>
</svg>
