<!--?xml version="1.0" encoding="utf-8"?-->
<!-- Generator: Adobe Illustrator 15.1.0, SVG Export Plug-In . SVG Version: 6.00 Build 0)  -->

<svg version="1.1" id="_x32_" xmlns="http://www.w3.org/2000/svg" xmlns:xlink="http://www.w3.org/1999/xlink" viewBox="0 0 512 512" fill="#272343">

<g>
	<path class="st0" d="M465.75,336.531l-33.563-71.141c0.094-2.125,0.156-4.25,0.156-6.391c0-89.453-72.5-161.969-161.969-161.969
		c-89.438,0-161.938,72.516-161.938,161.969c0,50.281,22.906,95.219,58.875,124.938v57.25c0,5.578,3.344,10.625,8.5,12.797
		l134.125,56.906c4.281,1.828,9.219,1.375,13.125-1.203c3.875-2.563,6.219-6.938,6.219-11.594v-48.5
		c0-7.688,6.219-13.922,13.906-13.922h68.688c7.688,0,13.938-6.234,13.938-13.922v-41.813c0-5.328,3.031-10.188,7.813-12.531
		l25.625-12.422C466.094,351.656,469,343.422,465.75,336.531z M271.563,397.438c-6.969,0-13.063-3.891-16.156-9.625h32.281
		C284.594,393.547,278.531,397.438,271.563,397.438z M304.25,361.781c0,2.469-1.25,4.641-3.156,5.938
		c1.906,1.281,3.156,3.453,3.156,5.922c0,3.953-3.219,7.172-7.188,7.172h-51.375c-3.969,0-7.156-3.219-7.156-7.172
		c0-2.469,1.25-4.641,3.125-5.922c-1.875-1.297-3.125-3.469-3.125-5.938c0-2.438,1.219-4.594,3.094-5.891
		c-1.875-1.297-3.094-3.453-3.094-5.891c0-3.969,3.188-7.188,7.156-7.188h51.375c3.969,0,7.188,3.219,7.188,7.188
		c0,2.438-1.219,4.594-3.094,5.891C303.031,357.188,304.25,359.344,304.25,361.781z M313.094,302.672
		c-11.969,7.922-13.031,13.813-13.031,28.563h-57.344c0-14.75-1.094-20.641-13.031-28.563
		c-20.531-13.547-34.063-36.813-34.063-63.234c0-41.828,33.938-75.734,75.75-75.734c41.844,0,75.75,33.906,75.75,75.734
		C347.125,265.859,333.594,289.125,313.094,302.672z"></path>
	<rect x="258.563" class="st0" width="23.688" height="53.844"></rect>
	<polygon class="st0" points="178.094,75.406 157.563,87.25 130.625,40.609 151.156,28.781 	"></polygon>
	<polygon class="st0" points="98.656,146.156 86.813,166.688 40.156,139.75 52.031,119.234 	"></polygon>
	<polygon class="st0" points="65.25,247.156 65.25,270.844 11.375,270.844 11.406,247.156 	"></polygon>
	<polygon class="st0" points="488.781,119.234 500.625,139.75 454,166.656 442.156,146.141 	"></polygon>
	<polygon class="st0" points="389.625,28.781 410.156,40.625 383.219,87.25 362.719,75.391 	"></polygon>
</g>
</svg>
